<?xml version="1.0" encoding="iso-8859-1"?>
<!-- Generator: Adobe Illustrator 19.0.0, SVG Export Plug-In . SVG Version: 6.00 Build 0)  -->
<svg version="1.1" id="Capa_1" xmlns="http://www.w3.org/2000/svg" xmlns:xlink="http://www.w3.org/1999/xlink" x="0px" y="0px"
	 viewBox="0 0 512.003 512.003" style="enable-background:new 0 0 512.003 512.003;" xml:space="preserve">
<circle style="fill:#F48944;" cx="256.002" cy="257.415" r="254.588"/>
<polygon style="fill:#E8D4BB;" points="506.865,121.6 378.52,454.88 364.934,490.159 349.615,484.263 146.093,117.042 191.164,0 "/>
<polygon style="fill:#13BFBE;" points="463.797,140.149 378.52,361.557 366.31,393.262 349.615,386.838 349.615,117.042 
	182.024,117.042 210.67,42.65 "/>
<polygon style="fill:#4A5370;" points="404.943,292.952 238.482,209.652 349.615,386.838 366.31,393.262 "/>
<path style="fill:#F9E7CD;" d="M11.297,117.045v210.841c7.43,25.854,18.84,50.014,33.533,71.773V149.83h271.246v271.256H60.999
	C107.698,476.669,177.726,512,256.004,512h93.616V117.045C349.619,117.045,11.297,117.045,11.297,117.045z"/>
<path style="fill:#27D1CF;" d="M316.076,421.086H60.999c-5.757-6.837-11.15-13.997-16.169-21.427V149.83h271.246V421.086z"/>
<circle style="fill:#FFC772;" cx="227.467" cy="263.442" r="64.421"/>
<path style="fill:#FCF2E8;" d="M195.64,301.214L195.64,301.214c0-6.975-5.654-12.628-12.628-12.628H76.597
	c-6.975,0-12.628,5.654-12.628,12.628l0,0c0,6.975,5.654,12.628,12.628,12.628h34.421c6.975,0,12.628,5.654,12.628,12.628l0,0
	c0,6.975-5.654,12.628-12.628,12.628h-3.509c-6.975,0-12.628,5.654-12.628,12.628l0,0c0,6.975,5.654,12.628,12.628,12.628H209.5
	c6.975,0,12.628-5.654,12.628-12.628l0,0c0-6.975,5.654-12.628,12.628-12.628h3.509c6.975,0,12.628-5.654,12.628-12.628l0,0
	c0-6.975-5.654-12.628-12.628-12.628h-29.997C201.294,313.842,195.64,308.188,195.64,301.214z"/>
<g>
</g>
<g>
</g>
<g>
</g>
<g>
</g>
<g>
</g>
<g>
</g>
<g>
</g>
<g>
</g>
<g>
</g>
<g>
</g>
<g>
</g>
<g>
</g>
<g>
</g>
<g>
</g>
<g>
</g>
</svg>
